<?xml version="1.0" standalone="no"?>
<!DOCTYPE svg PUBLIC "-//W3C//DTD SVG 20010904//EN"
 "http://www.w3.org/TR/2001/REC-SVG-20010904/DTD/svg10.dtd">
<svg version="1.0" xmlns="http://www.w3.org/2000/svg"
 width="1500.000000pt" height="1500.000000pt" viewBox="0 0 1500.000000 1500.000000"
 preserveAspectRatio="xMidYMid meet">
<metadata>
Created by potrace 1.14, written by Peter Selinger 2001-2017
</metadata>
<g transform="translate(0.000000,1500.000000) scale(0.100000,-0.100000)"
fill="#000000" stroke="none">
<path d="M0 7500 l0 -7500 7500 0 7500 0 0 7500 0 7500 -7500 0 -7500 0 0
-7500z m7930 3319 c371 -32 691 -117 995 -263 250 -121 399 -222 574 -391 231
-223 382 -463 480 -762 56 -170 101 -433 101 -591 l0 -32 -756 2 -757 3 -18
90 c-24 120 -53 194 -109 279 -125 189 -322 305 -600 353 -133 23 -431 22
-564 -1 -385 -69 -605 -266 -632 -568 -28 -320 197 -535 717 -682 68 -19 314
-78 547 -131 633 -144 824 -203 1127 -349 589 -284 932 -664 1070 -1186 94
-357 81 -773 -36 -1123 -225 -673 -831 -1127 -1716 -1286 -259 -47 -389 -56
-788 -56 -408 0 -520 9 -805 61 -1196 219 -1866 937 -1917 2052 l-6 142 756 0
c417 0 757 -3 757 -7 0 -5 7 -53 15 -108 34 -225 111 -383 259 -530 206 -204
512 -306 921 -307 274 0 451 34 630 122 117 57 198 118 259 196 182 233 168
527 -35 718 -85 81 -175 134 -331 198 -185 75 -335 116 -890 247 -278 65 -568
138 -644 161 -292 87 -583 221 -799 365 -344 229 -535 468 -645 805 -64 196
-75 279 -75 570 0 287 13 382 81 588 318 971 1454 1541 2834 1421z"/>
</g>
</svg>
